JIMMY HENDRIX THE SWINGING 60’s
Studio: Green Umbrella 
 DVD Release Date: 12 Oct 2009 
 Run Time: 46 minutes
Format:xvid

[img]http://www.g2ent.co.uk/wp-content/uploads/2011/01/The-Swinging-60s-Jimi-Hendrix_GUMD3003_Front-sleeve.jpg[/img]

From the third in the series of the Swinging Sixties



Documentary profiling the legendary Jimi Hendrix, features live performances captured at the Seville Theatre, London in 1968 and includes classics tracks such as ‘Hey Joe’, ‘Purple Haze’ and ‘Fire’. 

 This documentary also features a performance by Jimi Hendrix and Brian Jones of 'My Little One' a previously unreleased collaboration of two of the most famous guitarists the world have ever seen. 


General
Complete name                    : F:\DVD\Jimi.Hendrix.The.Swinging.60s.XviD.avi
Format                           : AVI
File size                        : 352 MiB
Duration                         : 46mn 35s
Overall bit rate                 : 1 055 Kbps

Video
ID                               : 0
Format                           : MPEG-4 Visual
Format profile                   : Advanced Simple@L5
Format settings, BVOP            : Yes
Format settings, QPel            : No
Format settings, GMC             : No warppoints
Format settings, Matrix          : Default (H.263)
Codec ID                         : XVID
Duration                         : 46mn 35s
Bit rate                         : 933 Kbps
Width  x Height           : 512 x 384 pixels
Display aspect ratio             : 4:3
Frame rate                       : 25.000 fps
Color space                      : YUV
Chroma subsampling               : 4:2:0
Bit depth                        : 8 bits
Scan type                        : Progressive
Bits/(Pixel*Frame)               : 0.190
Stream size                      : 311 MiB (88%)
Writing library                  : XviD 1.1.2 (UTC 2006-11-01)

Audio
ID                               : 1
Format                           : MPEG Audio
Format version                   : Version 1
Format profile                   : Layer 3
Mode                             : Joint stereo
Mode extension                   : MS Stereo
Codec ID                         : 55
Duration                         : 46mn 35s
Bit rate mode                    : Variable
Bit rate                         : 109 Kbps
Nominal bit rate                 : 128 Kbps
Channel(s)                       : 2 channels
Sampling rate                    : 48.0 KHz
Stream size                      : 36.3 MiB (10%)
Alignment                        : Aligned on interleaves
Interleave, duration             : 24 ms (0.60 video frame)
Interleave, preload duration     : 450 ms
Writing library                  : LAME3.90.
Encoding settings                : -m j -V 4 -q 2 -lowpass 17.6 --abr 128

